<svg width="48" height="41" viewBox="0 0 48 41" fill="none" xmlns="http://www.w3.org/2000/svg">
<path d="M46 34.5C46 35.5609 45.5786 36.5783 44.8284 37.3284C44.0783 38.0786 43.0609 38.5 42 38.5H6C4.93913 38.5 3.92172 38.0786 3.17157 37.3284C2.42143 36.5783 2 35.5609 2 34.5V12.5C2 11.4391 2.42143 10.4217 3.17157 9.67157C3.92172 8.92143 4.93913 8.5 6 8.5H14L18 2.5H30L34 8.5H42C43.0609 8.5 44.0783 8.92143 44.8284 9.67157C45.5786 10.4217 46 11.4391 46 12.5V34.5Z" stroke="#068FFF" stroke-width="4" stroke-linecap="round" stroke-linejoin="round"/>
<path d="M24 30.5C28.4183 30.5 32 26.9183 32 22.5C32 18.0817 28.4183 14.5 24 14.5C19.5817 14.5 16 18.0817 16 22.5C16 26.9183 19.5817 30.5 24 30.5Z" stroke="#068FFF" stroke-width="4" stroke-linecap="round" stroke-linejoin="round"/>
</svg>
