<svg width="22" height="19" viewBox="0 0 22 19" fill="none" xmlns="http://www.w3.org/2000/svg">
<path d="M11 3.80749C13.76 3.80749 16 6.04749 16 8.80749C16 9.31749 15.9 9.80749 15.76 10.2675L18.82 13.3275C20.21 12.0975 21.31 10.5575 22 8.79749C20.27 4.41749 16 1.30749 11 1.30749C9.73 1.30749 8.51 1.50749 7.36 1.87749L9.53 4.04749C10 3.90749 10.49 3.80749 11 3.80749ZM1.71 0.467488C1.32 0.857488 1.32 1.48749 1.71 1.87749L3.68 3.84749C2.06 5.13749 0.77 6.83749 0 8.80749C1.73 13.1975 6 16.3075 11 16.3075C12.52 16.3075 13.97 16.0075 15.31 15.4875L18.03 18.2075C18.42 18.5975 19.05 18.5975 19.44 18.2075C19.83 17.8175 19.83 17.1875 19.44 16.7975L3.13 0.467488C2.74 0.0774878 2.1 0.0774878 1.71 0.467488ZM11 13.8075C8.24 13.8075 6 11.5675 6 8.80749C6 8.03749 6.18 7.30749 6.49 6.66749L8.06 8.23749C8.03 8.41749 8 8.60749 8 8.80749C8 10.4675 9.34 11.8075 11 11.8075C11.2 11.8075 11.38 11.7775 11.57 11.7375L13.14 13.3075C12.49 13.6275 11.77 13.8075 11 13.8075ZM13.97 8.47749C13.82 7.07749 12.72 5.98749 11.33 5.83749L13.97 8.47749Z" fill="#007FF5"/>
</svg>
