<svg width="38" height="38" viewBox="0 0 38 38" fill="none" xmlns="http://www.w3.org/2000/svg">
<path d="M19 35.2857C10.0055 35.2857 2.71429 27.9945 2.71429 19C2.71429 10.0055 10.0055 2.71429 19 2.71429C27.9945 2.71429 35.2857 10.0055 35.2857 19C35.2857 27.9945 27.9945 35.2857 19 35.2857ZM12.2143 14.9286C11.8544 14.9286 11.5092 15.0716 11.2547 15.3261C11.0001 15.5806 10.8572 15.9258 10.8572 16.2857V25.7857C10.8572 26.1457 11.0001 26.4909 11.2547 26.7454C11.5092 26.9999 11.8544 27.1429 12.2143 27.1429H13.5714C13.9314 27.1429 14.2766 26.9999 14.5311 26.7454C14.7856 26.4909 14.9286 26.1457 14.9286 25.7857V16.2857C14.9286 15.9258 14.7856 15.5806 14.5311 15.3261C14.2766 15.0716 13.9314 14.9286 13.5714 14.9286H12.2143ZM18.3214 10.8572C17.9615 10.8572 17.6163 11.0001 17.3618 11.2547C17.1073 11.5092 16.9643 11.8544 16.9643 12.2143V25.7857C16.9643 26.1457 17.1073 26.4909 17.3618 26.7454C17.6163 26.9999 17.9615 27.1429 18.3214 27.1429H19.6786C20.0385 27.1429 20.3837 26.9999 20.6382 26.7454C20.8927 26.4909 21.0357 26.1457 21.0357 25.7857V12.2143C21.0357 11.8544 20.8927 11.5092 20.6382 11.2547C20.3837 11.0001 20.0385 10.8572 19.6786 10.8572H18.3214ZM24.4286 19C24.0686 19 23.7234 19.143 23.4689 19.3975C23.2144 19.652 23.0714 19.9972 23.0714 20.3572V25.7857C23.0714 26.1457 23.2144 26.4909 23.4689 26.7454C23.7234 26.9999 24.0686 27.1429 24.4286 27.1429H25.7857C26.1457 27.1429 26.4909 26.9999 26.7454 26.7454C26.9999 26.4909 27.1429 26.1457 27.1429 25.7857V20.3572C27.1429 19.9972 26.9999 19.652 26.7454 19.3975C26.4909 19.143 26.1457 19 25.7857 19H24.4286Z" fill="white"/>
</svg>
