<svg width="39" height="38" viewBox="0 0 39 38" fill="none" xmlns="http://www.w3.org/2000/svg">
<path d="M31.5477 21.0357V31.2143C31.5477 31.5819 31.4134 31.8999 31.1448 32.1685C30.8762 32.4371 30.5581 32.5714 30.1905 32.5714H22.0477V24.4286H16.6191V32.5714H8.47623C8.10867 32.5714 7.79059 32.4371 7.52199 32.1685C7.25339 31.8999 7.11909 31.5819 7.11909 31.2143V21.0357C7.11909 21.0216 7.12262 21.0004 7.12969 20.9721C7.13676 20.9438 7.1403 20.9226 7.1403 20.9085L19.3334 10.8571L31.5265 20.9085C31.5406 20.9368 31.5477 20.9792 31.5477 21.0357ZM36.2765 19.5725L34.9617 21.1417C34.8486 21.269 34.7002 21.3467 34.5164 21.375H34.4528C34.269 21.375 34.1206 21.3255 34.0075 21.2266L19.3334 8.99108L4.65927 21.2266C4.48963 21.3397 4.31998 21.3891 4.15034 21.375C3.96656 21.3467 3.81812 21.269 3.70503 21.1417L2.3903 19.5725C2.2772 19.4312 2.22772 19.2651 2.24186 19.0742C2.256 18.8834 2.33375 18.7314 2.47512 18.6183L17.7218 5.9163C18.1741 5.54874 18.7114 5.36496 19.3334 5.36496C19.9554 5.36496 20.4926 5.54874 20.945 5.9163L26.1191 10.2422V6.10715C26.1191 5.90923 26.1827 5.74666 26.3099 5.61942C26.4372 5.49219 26.5997 5.42858 26.7977 5.42858H30.8691C31.067 5.42858 31.2296 5.49219 31.3568 5.61942C31.484 5.74666 31.5477 5.90923 31.5477 6.10715V14.7589L36.1916 18.6183C36.333 18.7314 36.4108 18.8834 36.4249 19.0742C36.439 19.2651 36.3895 19.4312 36.2765 19.5725Z" fill="#F2F8FD"/>
</svg>
