<svg width="70" height="61" viewBox="0 0 70 61" fill="none" xmlns="http://www.w3.org/2000/svg">
<path d="M12.3328 54.1969H20.7082V33.8913L8.72937 24.9802V50.6422C8.72937 52.59 10.3363 54.1969 12.3328 54.1969Z" fill="#4285F4"/>
<path d="M49.3405 54.1969H57.716C59.7124 54.1969 61.3193 52.59 61.3193 50.5935V24.9802L49.3892 33.94V54.1969H49.3405Z" fill="#34A853"/>
<path d="M49.3405 18.4064V33.94L61.2706 24.9802V20.2081C61.2706 15.7769 56.2064 13.2448 52.6517 15.923L49.3405 18.4064Z" fill="#FBBC04"/>
<path fill-rule="evenodd" clip-rule="evenodd" d="M20.6595 33.8913V18.4065L34.9756 29.168L49.2918 18.4065V33.94L35.0243 44.6528L20.6595 33.8913Z" fill="#EA4335"/>
<path d="M8.72937 20.1595V24.9315L20.6595 33.8913V18.4065L17.2996 15.8743C13.7936 13.2448 8.72937 15.777 8.72937 20.1595Z" fill="#C5221F"/>
</svg>
