<svg width="37" height="38" viewBox="0 0 37 38" fill="none" xmlns="http://www.w3.org/2000/svg">
<path d="M4.9375 15.7344V33.25C4.9375 33.5649 5.06261 33.867 5.28531 34.0897C5.50801 34.3124 5.81006 34.4375 6.125 34.4375H13.25V24.3438C13.25 23.8713 13.4377 23.4183 13.7717 23.0842C14.1058 22.7502 14.5588 22.5625 15.0312 22.5625H20.9688C21.4412 22.5625 21.8942 22.7502 22.2283 23.0842C22.5623 23.4183 22.75 23.8713 22.75 24.3438V34.4375H29.875C30.1899 34.4375 30.492 34.3124 30.7147 34.0897C30.9374 33.867 31.0625 33.5649 31.0625 33.25V15.7344" stroke="#FFFBFB" stroke-width="2" stroke-linecap="round" stroke-linejoin="round"/>
<path d="M34.625 19L18.8082 3.85936C18.4371 3.46749 17.5695 3.46303 17.1918 3.85936L1.375 19M28.6875 13.2851V4.74999H25.125V9.87108" stroke="#FFFBFB" stroke-width="2" stroke-linecap="round" stroke-linejoin="round"/>
</svg>
