<svg width="41" height="35" viewBox="0 0 41 35" fill="none" xmlns="http://www.w3.org/2000/svg">
<path d="M1.33337 29.25C1.33337 26.7304 2.33426 24.3141 4.11586 22.5325C5.89745 20.7509 8.31382 19.75 10.8334 19.75H29.8334C32.3529 19.75 34.7693 20.7509 36.5509 22.5325C38.3325 24.3141 39.3334 26.7304 39.3334 29.25C39.3334 30.5098 38.8329 31.718 37.9421 32.6088C37.0513 33.4996 35.8432 34 34.5834 34H6.08337C4.8236 34 3.61541 33.4996 2.72462 32.6088C1.83382 31.718 1.33337 30.5098 1.33337 29.25Z" stroke="white" stroke-width="1.5" stroke-linejoin="round"/>
<path d="M20.3334 15.75C24.2684 15.75 27.4584 12.56 27.4584 8.625C27.4584 4.68997 24.2684 1.5 20.3334 1.5C16.3983 1.5 13.2084 4.68997 13.2084 8.625C13.2084 12.56 16.3983 15.75 20.3334 15.75Z" stroke="white" stroke-width="1.5"/>
</svg>
