<svg width="38" height="38" viewBox="0 0 38 38" fill="none" xmlns="http://www.w3.org/2000/svg">
<path d="M19 0C29.4935 0 38 8.50646 38 19C38 29.4935 29.4935 38 19 38C8.50646 38 0 29.4935 0 19C0 8.50646 8.50646 0 19 0ZM19 3.16667C10.2552 3.16667 3.16667 10.2552 3.16667 19C3.16667 27.7448 10.2552 34.8333 19 34.8333C27.7448 34.8333 34.8333 27.7448 34.8333 19C34.8333 10.2552 27.7448 3.16667 19 3.16667ZM12.6667 14.25C13.0866 14.25 13.4893 14.4168 13.7863 14.7137C14.0832 15.0107 14.25 15.4134 14.25 15.8333V26.9167C14.25 27.3366 14.0832 27.7393 13.7863 28.0363C13.4893 28.3332 13.0866 28.5 12.6667 28.5H11.0833C10.6634 28.5 10.2607 28.3332 9.96375 28.0363C9.66682 27.7393 9.5 27.3366 9.5 26.9167V15.8333C9.5 15.4134 9.66682 15.0107 9.96375 14.7137C10.2607 14.4168 10.6634 14.25 11.0833 14.25H12.6667ZM19.7917 9.5C20.2116 9.5 20.6143 9.66682 20.9113 9.96375C21.2082 10.2607 21.375 10.6634 21.375 11.0833V26.9167C21.375 27.3366 21.2082 27.7393 20.9113 28.0363C20.6143 28.3332 20.2116 28.5 19.7917 28.5H18.2083C17.7884 28.5 17.3857 28.3332 17.0887 28.0363C16.7918 27.7393 16.625 27.3366 16.625 26.9167V11.0833C16.625 10.6634 16.7918 10.2607 17.0887 9.96375C17.3857 9.66682 17.7884 9.5 18.2083 9.5H19.7917ZM26.9167 19C27.3366 19 27.7393 19.1668 28.0363 19.4637C28.3332 19.7607 28.5 20.1634 28.5 20.5833V26.9167C28.5 27.3366 28.3332 27.7393 28.0363 28.0363C27.7393 28.3332 27.3366 28.5 26.9167 28.5H25.3333C24.9134 28.5 24.5107 28.3332 24.2137 28.0363C23.9168 27.7393 23.75 27.3366 23.75 26.9167V20.5833C23.75 20.1634 23.9168 19.7607 24.2137 19.4637C24.5107 19.1668 24.9134 19 25.3333 19H26.9167Z" fill="white"/>
</svg>
